<?xml version="1.0" encoding="UTF-8"?>
<svg id="Layer_2" data-name="Layer 2" xmlns="http://www.w3.org/2000/svg" xmlns:xlink="http://www.w3.org/1999/xlink" viewBox="0 0 543.84 865.92">
  <defs>
    <style>
      .cls-1 {
        fill: #fff;
      }

      .cls-2 {
        fill: #f8931a;
      }

      .cls-3 {
        fill: url(#linear-gradient);
        stroke: url(#linear-gradient-2);
        stroke-miterlimit: 10;
      }
    </style>
    <linearGradient id="linear-gradient" x1=".5" y1="334.41" x2="543.34" y2="334.41" gradientUnits="userSpaceOnUse">
      <stop offset="0" stop-color="#f6921e"/>
      <stop offset=".21" stop-color="#f58d1e"/>
      <stop offset=".44" stop-color="#f2801f"/>
      <stop offset=".67" stop-color="#ee6b21"/>
      <stop offset=".91" stop-color="#e94d24"/>
      <stop offset="1" stop-color="#e74126"/>
    </linearGradient>
    <linearGradient id="linear-gradient-2" x1="41.01" y1="610.41" x2="502.82" y2="148.6" xlink:href="#linear-gradient"/>
  </defs>
  <g id="Layer_1-2" data-name="Layer 1">
    <g>
      <path class="cls-1" d="M45.71,714.96c3.98,0,7.42.71,10.32,2.11,2.9,1.41,5.3,3.32,7.21,5.72,1.91,2.4,3.31,5.22,4.23,8.45.91,3.23,1.37,6.71,1.37,10.44,0,5.72-1.06,11.13-3.17,16.22-2.11,5.1-4.99,9.53-8.64,13.3-3.65,3.77-7.96,6.76-12.93,8.95-4.97,2.19-10.36,3.29-16.16,3.29-.75,0-2.05-.02-3.92-.06-1.86-.04-4-.23-6.4-.56-2.4-.33-4.95-.83-7.65-1.49-2.69-.66-5.24-1.57-7.65-2.74l21.51-90.38,19.27-2.98-7.71,32.07c1.66-.75,3.31-1.32,4.97-1.74,1.66-.41,3.44-.62,5.35-.62ZM29.55,768.17c2.9,0,5.63-.7,8.2-2.11,2.57-1.41,4.79-3.29,6.65-5.66,1.86-2.36,3.34-5.03,4.41-8.02,1.08-2.98,1.62-6.09,1.62-9.32,0-3.98-.66-7.09-1.99-9.32-1.33-2.24-3.77-3.36-7.33-3.36-1.16,0-2.67.21-4.54.62-1.86.42-3.54,1.29-5.03,2.61l-8.2,34.06c.5.08.93.17,1.3.25.37.08.77.15,1.18.19.41.04.91.06,1.49.06h2.24Z"/>
      <path class="cls-1" d="M90.83,781.72h-18.4l15.54-65.39h18.52l-15.66,65.39ZM99.78,708.37c-2.57,0-4.89-.77-6.96-2.3-2.07-1.53-3.11-3.87-3.11-7.02,0-1.74.35-3.38,1.06-4.91.7-1.53,1.64-2.86,2.8-3.98,1.16-1.12,2.51-2.01,4.04-2.67,1.53-.66,3.17-.99,4.91-.99,2.57,0,4.89.77,6.96,2.3,2.07,1.53,3.11,3.87,3.11,7.02,0,1.74-.35,3.38-1.06,4.91-.71,1.53-1.64,2.86-2.8,3.98-1.16,1.12-2.51,2.01-4.04,2.67-1.53.66-3.17.99-4.91.99Z"/>
      <path class="cls-1" d="M124.02,700.04l19.27-2.98-4.72,19.27h20.64l-3.73,15.17h-20.51l-5.47,22.87c-.5,1.91-.81,3.69-.93,5.35-.12,1.66.08,3.09.62,4.29.54,1.2,1.47,2.13,2.8,2.8,1.32.66,3.15,1,5.47,1,1.99,0,3.92-.19,5.78-.56,1.86-.37,3.75-.89,5.66-1.55l1.37,14.17c-2.49.91-5.18,1.7-8.08,2.36-2.9.66-6.34.99-10.32.99-5.72,0-10.15-.85-13.3-2.55-3.15-1.7-5.39-4.02-6.71-6.96-1.33-2.94-1.91-6.32-1.74-10.13.16-3.81.75-7.83,1.74-12.06l12.18-51.47Z"/>
      <path class="cls-1" d="M158.46,755.61c0-5.63.91-10.94,2.73-15.91,1.82-4.97,4.43-9.32,7.83-13.05,3.4-3.73,7.52-6.67,12.37-8.83,4.85-2.15,10.26-3.23,16.22-3.23,3.73,0,7.06.35,10.01,1.06,2.94.71,5.61,1.64,8.02,2.8l-6.34,14.42c-1.66-.66-3.38-1.26-5.16-1.8-1.78-.54-3.96-.81-6.53-.81-6.22,0-11.11,2.09-14.67,6.28-3.56,4.19-5.35,9.88-5.35,17.09,0,4.23.91,7.65,2.74,10.26,1.82,2.61,5.18,3.92,10.07,3.92,2.4,0,4.72-.25,6.96-.75,2.24-.5,4.23-1.12,5.97-1.86l1.37,14.79c-2.32.91-4.87,1.72-7.65,2.42-2.78.7-6.15,1.06-10.13,1.06-5.14,0-9.49-.75-13.05-2.24-3.56-1.49-6.51-3.5-8.83-6.03-2.32-2.53-4-5.49-5.04-8.89-1.04-3.4-1.55-6.96-1.55-10.69Z"/>
      <path class="cls-1" d="M239.51,783.46c-4.39,0-8.2-.66-11.44-1.99-3.23-1.32-5.91-3.19-8.02-5.59-2.11-2.4-3.71-5.24-4.79-8.52-1.08-3.27-1.62-6.9-1.62-10.88,0-4.97.81-9.95,2.42-14.92,1.62-4.97,4-9.45,7.15-13.43,3.15-3.98,7-7.23,11.56-9.76,4.56-2.53,9.78-3.79,15.66-3.79,4.31,0,8.1.66,11.38,1.99,3.27,1.33,5.97,3.19,8.08,5.59,2.11,2.41,3.71,5.24,4.79,8.52,1.08,3.27,1.62,6.9,1.62,10.88,0,4.97-.79,9.95-2.36,14.92-1.58,4.97-3.9,9.45-6.96,13.43-3.07,3.98-6.9,7.23-11.5,9.76-4.6,2.53-9.93,3.79-15.97,3.79ZM248.71,730.25c-2.73,0-5.14.79-7.21,2.36-2.07,1.58-3.81,3.56-5.22,5.97-1.41,2.41-2.47,5.04-3.17,7.89-.71,2.86-1.06,5.57-1.06,8.14,0,4.23.66,7.48,1.99,9.76,1.33,2.28,3.73,3.42,7.21,3.42,2.73,0,5.14-.79,7.21-2.36,2.07-1.57,3.81-3.56,5.22-5.97,1.41-2.4,2.47-5.04,3.17-7.89.7-2.86,1.06-5.57,1.06-8.14,0-4.23-.66-7.48-1.99-9.76-1.33-2.28-3.73-3.42-7.21-3.42Z"/>
      <path class="cls-1" d="M298.31,781.72h-18.4l15.54-65.39h18.52l-15.66,65.39ZM307.26,708.37c-2.57,0-4.89-.77-6.96-2.3-2.07-1.53-3.11-3.87-3.11-7.02,0-1.74.35-3.38,1.06-4.91.7-1.53,1.64-2.86,2.8-3.98,1.16-1.12,2.51-2.01,4.04-2.67,1.53-.66,3.17-.99,4.91-.99,2.57,0,4.89.77,6.96,2.3,2.07,1.53,3.11,3.87,3.11,7.02,0,1.74-.35,3.38-1.06,4.91-.71,1.53-1.64,2.86-2.8,3.98-1.16,1.12-2.51,2.01-4.04,2.67-1.53.66-3.17.99-4.91.99Z"/>
      <path class="cls-1" d="M328.77,719.31c1.41-.41,2.96-.89,4.66-1.43,1.7-.54,3.61-1.04,5.72-1.49,2.11-.45,4.48-.83,7.09-1.12,2.61-.29,5.57-.44,8.89-.44,9.78,0,16.49,2.82,20.14,8.45,3.65,5.64,4.27,13.34,1.86,23.12l-8.45,35.31h-18.52l8.21-34.56c.5-2.15.89-4.25,1.18-6.28.29-2.03.27-3.81-.06-5.35-.33-1.53-1.1-2.78-2.3-3.73-1.2-.95-3.05-1.43-5.53-1.43s-4.85.25-7.33.75l-12.06,50.6h-18.52l15.04-62.41Z"/>
      <path class="cls-2" d="M458.03,680.71c3.01,2.63,4.76,5.17,5.24,5.82,3.12,4.21,5.01,9.17,5.01,14.44,0,8.66-4.55,14.72-13.64,18.18l-5.2.65-3.25-.32h-.33v.32c3.68,2.22,5.52,6.12,5.52,11.69,0,6.98-6.06,12.5-18.18,16.56-16.4,6.28-25.71,10.72-27.92,13.31l-.33,1.3v.33l22.41-.65,10.72.65,8.12-.97c6.49,0,9.74,2.92,9.74,8.77v1.62c0,3.57-2.81,7.04-8.44,10.39-10.39,12.93-15.59,23.97-15.59,33.12v.33c0,8.98,4.55,18.4,13.64,28.25,7.2,7.14,14.66,10.71,22.4,10.71h1.95c7.85,0,14.88-3.57,21.11-10.71,4-3.52,7.03-7.31,9.09-11.37,5.57-6.49,9.36-9.74,11.36-9.74,6.28.92,9.42,3.19,9.42,6.82v.65c-2,4.87-6.77,11.15-14.29,18.83-13.2,10.82-28.25,16.23-45.13,16.23-22.78,0-38.05-12.77-45.78-38.31-.87-3.68-1.3-7.79-1.3-12.34v-.33c0-12.66,4.55-24.89,13.64-36.69h-5.52c-3.68,0-11.91.97-24.68,2.92-2.81,0-6.06-2.06-9.74-6.17-1.95-3.19-2.92-5.57-2.92-7.14,0-4.44,2.81-8.98,8.44-13.64,5.52-4.22,15.69-9.42,30.52-15.59,4.11-1.68,6.17-3.95,6.17-6.82-.92-1.95-2.22-2.92-3.9-2.92h-2.27c-3.73,0-8.17,2.27-13.31,6.82-6.28,4.55-10.93,6.82-13.96,6.82h-2.6c-4.33-.59-6.49-2.33-6.49-5.2,0-4.55,5.41-10.28,16.23-17.21l1.95-.65v-.33c-12.61,0-20.94-4.98-25-14.94l-.97-6.49c0-12.39,7.36-20.94,22.08-25.65,6.22-1.95,12.61-2.92,19.16-2.92,5.43,0,10.83.79,16.09,2.08,2.31.56,4.98,1.2,8.4,2.53,3.62,1.4,7.96,3.13,12.34,6.96ZM393.92,691.56v2.27c0,4.98,4.22,8.88,12.66,11.69l2.92.33c4.22,0,8.55-1.62,12.99-4.87,4.76,0,7.14,1.84,7.14,5.52v1.95c-3.52,3.9-5.79,5.84-6.82,5.84v.33l2.27-.33h1.3c3.9,0,7.58.43,11.04,1.3-4.76-4.22-7.14-9.09-7.14-14.61,0-3.41,1.62-8.06,4.87-13.96h-.33c-5.57-2.92-12.07-4.55-19.48-4.87-14.29,1.03-21.43,4.17-21.43,9.42ZM445.23,694.15l-1.3,3.9c1.51,4.98,3.79,7.47,6.82,7.47h1.3l.33-1.3c-.6-2.81-2.98-6.17-7.14-10.07Z"/>
      <path class="cls-2" d="M487.62,713.13h.57c8.41,0,13.62,2.93,15.6,8.79l.57,3.4c0,8.51-5.39,16.26-16.17,23.26-4.87,3.16-10.58,8.6-5.05,14.32,2.33,2.41,5.88,3.07,9.21,3.48,3.33.41,6.68.69,10.04.83,3.24.14,6.41-.05,9.66-.02,3.08.02,5.52-1.04,7.8-3.09,2.03-1.83,3.34-4.34,3.5-7.09.24-4.07-2.1-6.87-4.53-9.79-1.24-1.49-2.68-2.79-4.14-4.06-1.28-1.11-3.11-2.26-4.07-3.66-2.65-3.83-3.97-7.52-3.97-11.06v-2.27c0-6.62,3.97-10.78,11.91-12.48l5.11-.28c8.46,0,14.23,3.59,17.3,10.78l.57,4.26v.28c0,4.35-1.8,6.52-5.39,6.52h-.28c-5.3,0-8.42-1.8-9.36-5.39,0-3.4-1.32-5.11-3.97-5.11-2.65.33-3.97,1.37-3.97,3.12,0,1.99,3.5,6.34,10.5,13.05,6.05,6.81,9.08,12.29,9.08,16.45,0,12.98-15.36,21.5-26.49,23.9-8.58,1.85-17.52,1.33-26.17-.14-6.46-1.1-13.08-2.84-18.07-7.08-4.54-3.86-6.96-9.74-5.97-15.65.69-4.15,3.31-5.68,6.47-8.26,5.26-4.3,10.52-8.61,15.78-12.91,3.4-3.45,5.11-5.91,5.11-7.38v-.57c0-1.89-1.32-2.84-3.97-2.84s-7.14,3.59-13.33,10.78c-3.45,3.78-6.1,5.67-7.94,5.67-3.78-.99-5.67-2.79-5.67-5.39v-1.7c0-2.32,3.69-6.76,11.06-13.33,6.43-6.24,12.67-9.36,18.72-9.36Z"/>
    </g>
    <path class="cls-3" d="M233.06,443.25c0,15.91-8.57,28.81-19.15,28.81s-19.15-12.9-19.15-28.81,8.57-28.81,19.15-28.81,19.15,12.9,19.15,28.81ZM310.78,443.86c0,15.91,8.57,28.81,19.15,28.81s19.15-12.9,19.15-28.81-8.57-28.81-19.15-28.81-19.15,12.9-19.15,28.81ZM.5,201.51c6.7,55.23,4,111.02,6.45,166.47,2.51,46.58,8.31,104.96,61.79,118.62,6.68,1.79,13.56,2.86,20.48,3.41-6.94-.21-13.89-.99-20.69-2.59C13.73,475.54,6.11,415.15,3.77,368.14c-2.33-55.59.98-111.13-3.27-166.63H.5ZM5.22,200.78c62.05,56.78-35.93,222.96,45.07,275.14,11.65,7.63,25.31,11.6,38.94,14.08-13.85-1.81-27.7-5.46-39.77-12.76-84.74-52.68,14.23-219.8-44.24-276.47h0ZM77.79,454.08c-12.68-2.05-21.27-9.77-26.07-21.51-4.46-11-5.58-22.95-6.21-34.68-.57-11.74-.18-23.47.18-35.16,1.41-54.8,9.71-125.46-40.48-161.95,52.68,34.43,45.51,107.08,43.49,162.07-.54,11.67-.96,23.33-.75,34.96.33,11.53,1.16,23.32,5.22,34.19,4.07,11.54,12.52,19.49,24.63,22.08h0ZM97.39,263.84c-14.31-25.29-31.25-40.09-57.97-51.24-11.16-4.61-22.61-8.23-34.21-11.81,19.17,3.25,38.27,8.66,55.08,18.78,16.89,10.07,29.86,26.12,37.1,44.27h0ZM103.92,401.83c-52.16-66.41,28.78-132.54-17.94-229.39-4.66-10.26-10.49-19.97-16.66-29.44,10.16,13.63,18.93,28.4,24.99,44.33,34.82,88.73-36.5,149.5,9.61,214.51h0ZM5.22,200.78c30.33-8.83,68.54-1.67,93.67,17.46-7.16-3.92-14.56-7.18-22.17-9.85-22.85-7.91-47.45-10.85-71.5-7.62h0ZM119.71,392.57c-30.81-72.33,30.41-181.81-36.83-239.82-4.24-3.59-8.8-6.83-13.55-9.76,9.87,5.22,18.92,12.16,26.33,20.67,51.08,61.21-.88,159.8,24.05,228.91h0ZM177.59,379.87c-9.58-33.37-5.77-68.75-11.06-102.75-6.6-49.9-33.31-86.65-72.58-116.68-5.27-4.12-11.9-8.92-17.48-12.6l-7.15-4.84c9.92,5.83,19.71,11.96,28.94,18.89,39.23,28.85,65.14,65.8,71.24,114.81,4.9,34.28.34,69.28,8.08,103.18h0ZM94.52,499.26c-48.8.8-74.2,27.3-90.8,70.82-.21-10.76-.13-21.91,2.53-32.41,3.66-16.22,13.11-31.16,26.29-41.29,6.55-5.06,13.75-9.18,21.31-12.36-7.28,3.77-14.25,8.13-20.4,13.47-12.4,10.5-20.97,25.01-24.38,40.84-1.73,7.87-2.4,15.96-2.28,24.05l-3.03-.56c16.4-40.79,45.44-65.02,90.76-62.56h0ZM158.18,527.57c-15.76,23.16-52.64,13.48-76.14,11.34-13.15-1.42-26.73-2.71-39.69.22-13.06,2.76-23.58,11.7-28.81,23.92,0,0-2.41-1.88-2.41-1.88,50.53-39.67,94.67,35.51,159.71-10.66,6.52-4.56,12.55-9.8,18.27-15.33-5.46,5.8-11.32,11.28-17.74,16.06-55.78,41.45-95.29-6.51-137.66,2.19-7.57,1.69-14.56,5.37-20.63,10.19l-5.1,4.02,2.7-5.89c5.68-13.09,16.97-22.65,31.02-25.45,13.44-2.93,27.19-1.42,40.61.32,23.49,2.48,59.29,13.11,75.85-9.06h0ZM187.21,529.75c-45.21,3.48-96.37-12.55-108.76-61.11-7.28-45.89,23.61-73.8,65.77-82.78,12.67-2.61,25.78-3.65,38.63-1.98-12.88-.92-25.82.51-38.26,3.58-40.69,9.87-69.75,36.61-63.09,80.4,11.93,47.38,61.7,62.98,105.71,61.91h0ZM156.18,33.31c11.03,157.19,35.52,313.73,35.26,471.6.17,25.41-.09,53.43-.84,78.85-.6,26.28-2.03,52.53-3.39,78.77.68-23.68,1.73-55.57,1.82-78.8,1.35-85.22-1.85-170.89-8.69-255.82-7.52-96.35-20.14-198.13-24.16-294.6h0ZM69.32,142.99c40.42,9.25,84.72,31.03,101.01,71.58-5.05-9.39-11.45-17.89-18.85-25.37-22.58-22.58-52.42-35.7-82.16-46.21h0ZM204.63,360.46c-3.59-103.47-15.26-207.19-42.79-307.19,0,0-5.66-19.96-5.66-19.96,2.18,6.56,4.39,13.12,6.47,19.72,30.76,99.24,42.58,203.76,41.98,307.43h0ZM238.38,350.66c-4.13-99.73-15.5-191.07-62.1-281.01-5.45-10.6-14.11-26.11-20.09-36.34,6.48,9.88,15.59,25.09,21.48,35.61,48.76,88.86,60.75,181.82,60.72,281.74h0ZM270.8,330.88c-48.41-31.36,17.32-129.09-88.39-265.92-8.23-10.94-17.09-21.42-26.23-31.65,9.66,9.74,18.78,20.03,27.46,30.69,109.44,135.49,40.4,233.81,87.16,266.89h0ZM270.8,245.6c-3.92-42.48-6.09-85.13-11.92-127.4-4.34-30.05-10.32-60.7-25.49-87.35-5.98-10.36-13.62-19.67-22.78-27.49,8.56,6.44,16,14.37,22,23.25,35.51,51.72,35.32,155.97,38.19,218.99h0ZM226.4,127.48c-3.97-41.52-5.65-83.48-15.79-124.11,7.65,19.57,10.98,40.55,13.33,61.35,2.14,20.84,3.04,41.81,2.45,62.76h0ZM211.4,101.9c-.66-32.81,3.76-65.86-.79-98.53,4.27,13.85,5.14,28.59,5.09,43.02-.14,18.58-1.85,37.09-4.3,55.51h0ZM270.8,97.51c-9.57-36.99-27.11-73.77-58.4-97.08,33.71,19.08,53.61,59.67,58.4,97.08h0ZM189.11,662.54c16.04-22.59,20.24-56,20.98-83.17.5-8.99-.51-18.74,2.42-27.62,2.29-6.71,8.07-8.19,14.46-8.32,14.66-.74,29.23-.48,43.84-.1l-21.86,1.2c-8.99.61-18.18.66-27.02,2.1-5.41,1.03-7.16,5.93-7.79,11.16-.94,6.98-.62,14.57-.85,21.66-.05,5.13-.52,11.37-.92,16.49-2.3,22.31-8.26,49.31-23.25,66.61h0ZM202.5,656.75c5.53,2.09,11.48,3.15,17.28,4.21,8.64,1.49,17.72,2.57,26.47,3.23,23.48,1.9,47.58,1.08,70.94-1.88,4.28-.61,8.92-1.37,13.22-1.97,4.2-.83,8.96-1.71,13.17-2.45-5.51,1.6-11.63,3.46-17.29,4.63-27.69,6.23-56.6,7.39-84.75,3.96-7.29-.97-14.92-2.27-22.07-3.99-5.76-1.47-11.65-3-16.96-5.73h0ZM227.18,546.16c6.71,1.87,10.82,8.77,12.26,15.23.75,3.64.79,7.48.25,11.14-1.11,5.12-1.09,5.29-1.57-.04-1.1-9.63-3.22-19.74-10.95-26.34h0ZM240.03,575.78c-4.5-12.72-4.58-34.01,14.13-32.25,16.05,1.7,17.91,21.87,15.36,34.49-.25-11.21-1.56-29.88-15.68-31.31-15.99-1.99-15.24,18.17-13.81,29.08h0ZM215.23,580.22c8.86-1.41,18.15-1.8,27.12-2.02,9.08-.1,18.13.04,27.17,1.17-9,1.41-18.04,1.83-27.12,2.02-8.97.06-18.26-.03-27.17-1.17h0ZM245.46,582.77c.82,15.68,2.83,32.14,12.93,44.75,3.22,4.12,7.12,7.74,11.42,11.03-21.65-9.29-28.48-34.14-24.34-55.78h0ZM209.69,622.65c9.04-1.4,17.94-.06,26.93.99-7.49,3.33-19.41,1.89-26.93-.99h0ZM210.45,599.81c.22,7.92.89,20.17,10.38,22.06,0,0-.4-.02-.4-.02,1.58-.13,2.85-1.13,3.77-2.7,2.81-5.16,2.91-11.71,2.97-17.51,0,0,1.13,1.16,1.13,1.16-5-.68-12.75-2.08-17.85-2.98h0ZM210.45,599.81c6.27.05,12.82.13,19.11.55.62,6.9.8,14.16-2.66,20.45-1.29,2.22-3.78,4.07-6.46,4.11-2.66-.51-5.21-1.93-6.93-4.02-4.66-5.97-4.48-14.08-3.06-21.09h0ZM238.49,623.37c-11.55,1.7-11.9-12.48-10.48-20.51,0,0,.11-.69.11-.69l.44-.17c2.11-.82,4.36-.66,6.36.18-1.88.19-3.87.6-5.35,1.67l.55-.87c.28,3.63.3,7.27.83,10.86.31,2.32.88,4.93,2.33,6.6,1.24,1.61,3.44,1.95,5.22,2.92h0ZM192.87,427.08c3.15-10.87,10.84-22.38,22.94-23.96,15.85-1.68,27.92,9.56,31.79,24.39.45,1.22.65,3.11.95,4.39.33,1.26.47,3.13.59,4.44.69,5.82.21,11.95-.42,17.76-1.76,15.36-8.91,36.31-27.46,36.1-9.1-.24-17.49-4.88-23.37-11.54-1.76-2.18-3.8-5-3.14-7.94-.52,5.19,6.44,10.34,10.39,12.78,7.22,4.25,16.31,6.45,24.05,2.71,10.29-5.26,13.87-17.58,15.79-28.26.95-5.54,1.34-11.46,1.3-17.06.08-1.24-.21-2.99-.27-4.24-.11-1.24-.23-3.01-.53-4.2-2.25-15.26-13.09-28.29-29.45-27.27-11.55,1.06-19.28,11.82-23.17,21.91h0ZM184.14,407.7c-15.25.05-31.13,2.32-44.52,9.91-13.14,7.19-23.01,21.15-21.71,36.47,2.4,28.12,31.77,43.22,56.85,47.42,3.7.64,7.78,1.2,11.51,1.58-26.69-.23-57.99-10.33-68.86-37.02-8.1-20.15,2.3-41.18,21.01-50.62,14-7.38,30.22-8.95,45.72-7.74h0ZM189.11,378.11c10.58-18.18,32.07-26.1,50.34-13.76,22.93,16.29,28.24,50.71,27.93,76.99-2.76-27.3-9.58-68.96-39.1-79.07-15.26-4.67-30.12,3.63-39.17,15.85h0ZM249.93,456.66c2.19-5.36,6.55-9.71,11.8-12.11,1.78-.77,3.69-1.3,5.66-1.3-1.52,1.25-2.97,2.34-4.38,3.46-4.26,3.27-8.45,7.14-13.07,9.95h0ZM224.06,513.4c-.11-10.11,6.07-33.5,18.55-33.96,7.11.61,9.5,8.79,10.62,14.58-2.32-4.36-5.06-11.55-10.62-11.79-9.64,1.44-15.92,22.78-18.54,31.16h0ZM231.19,509.04c-.03-6.26.92-14.44,5.78-19.03,2.24-2.02,5.65-1.52,7.63.55,2.31,2.24,3.56,4.94,4.47,7.73-2.03-2.1-3.89-4.35-6.03-5.76-1.06-.7-2.12-1.04-2.87-.79-.77.2-1.61.98-2.32,2-1.43,2.07-2.47,4.7-3.5,7.3-1.03,2.62-1.98,5.32-3.17,8.01h0ZM230.87,357.67c9.37-11.03,25.42-15.83,39.39-12.24-7,.74-13.8,1.6-20.46,3.68-6.68,2-12.79,5.1-18.92,8.56h0ZM243.11,364.8c-1.14-10.71,6.54-21.29,16.58-11.71,6.16,6.69,8.36,15.66,8.97,24.38-1.51-4.06-2.97-8.05-4.7-11.86-6.47-14.58-16.43-20.15-20.84-.8h0ZM269.83,349.16c-2.66,2.26-4.36,4.44-6.71,6.92-2.23-3.93,2.67-9.24,6.71-6.92h0ZM186.27,490.01c-10.72.91-21.77.17-31.87-3.88-10.21-3.93-20-12.9-20.23-24.59.03-5.74,2.39-11.4,6.33-15.52,11.64-12.16,30.09-13.76,45.77-12.28-1.38.04-4.68.22-6,.24-1.28.11-4.62.4-5.96.52-11.37,1.53-23.74,4.72-31.57,13.53-3.38,3.67-5.39,8.49-5.39,13.46.25,10.53,8.94,18.24,18.03,22.35,9.56,4.35,20.43,5.76,30.88,6.16h0ZM186.27,527.57c-3.56.73-6.28-3.16-7.41-6.08-1.64-3.93-2-8.1-2.12-12.22.03-5.69.79-11.4,2.51-16.84.53,5.63.41,11.16.64,16.76.42,5.03.34,17.02,6.38,18.37h0ZM177.59,492.43c-.29,10.26-4.57,38.73-19.65,34.75-13.64-4.82,1.25-29.82,6.61-37.01-2.88,6.22-5.64,12.49-7.59,18.91-.89,3.2-1.74,6.49-1.58,9.59.08,1.52.37,2.99,1.16,3.96,1.59,2.02,5.03,2.35,7.26.99,7.92-5.22,11.42-22.09,13.79-31.18h0ZM172.9,431.34c-.27-8.05-.56-16.1-1.16-24.13-.15-4.04-1.15-7.91-3.35-11.32-2.03-3.06-4.8-6.86-8.73-7.1-1.85.29-3.47,1.68-4.71,3.01-7.15,8.83,3.28,29.67,4.93,40.38,0,0-1.44.29-1.44.29-.96-4.37-1.98-8.74-3.1-13.06-1.86-8.09-9.52-23.62-17.38-26.76-4.18-1.47-6.95,2.69-8.06,6.17-1.69,5.88.89,11.86,3.86,17.01,4.21,7.23,9.93,13.21,15.03,19.9l-1.96,1.38c-6.54-9.6-15.65-17.3-24.9-24.23-4.19-3.51-22.1-6.57-20.08,2.83.42,1.98,1.61,3.79,3.14,5.35,3.15,3.2,7.29,5.44,11.32,7.47,8.44,4.17,17.4,7.09,25.81,11.52l-1.44,2.53c-12.33-6.93-32.98-15.41-47.13-12.96-8.12,1.63-5.73,9.76-.13,13.21,1.94.91,4.27,1.49,6.57,1.98,11.76,2.29,23.84,2.97,35.82,3.56l-.13,3.14c-6.77-.31-13.56-.53-20.33-.63-6.4-.08-14.3-.13-19.96.53-4.62,1.23-11.37,3.88-10.09,9.55.74,2.82,3.13,5.88,6.06,6.89,7.83,1.45,15.95.78,23.93.65,5.9-.23,11.81-.55,17.69-.97l.06,2.82c-3.7-.07-7.4-.17-11.09-.05-8.39.32-24.68,1.02-30.23,7.62-1.1,3.91-1.28,9.51,3.98,10.97,4.57,1.38,9.78.57,14.48-.33,4.91-1.01,9.76-2.48,14.54-4.14,4.77-1.68,9.5-3.55,14.09-5.63l.72,2.06c-10.78,2.72-24.84,9.67-30.73,19.41-3.04,5.49,3.38,6.41,7.48,6.15,13.15-1.22,25.12-10.79,34.5-19.54,0,0,.92.88.92.88-4.6,4.86-9.18,9.81-13.25,15.13-1.27,1.76-2.71,3.49-3.06,5.68-1.23,6.8,2.66,14.74,10.43,10.1,1.93-1.07,3.63-2.54,5.24-4.07,1.24-1.73,2.76-3.77,3.94-5.72,2.48-3.96,4.57-8.14,6.45-12.42.91-1.89,1.89-4.6,3.1-6.28-1.09,1.75-2.19,4.41-2.98,6.33-2.7,6.5-5.95,12.79-10.15,18.46-4.86,5.14-13.27,9.64-16.42.29-.69-2.21-.88-4.56-.49-6.85.34-2.33,1.84-4.24,3.15-6.1,4.03-5.43,8.55-10.44,13.12-15.41l.92.88c-5.58,5.56-11.71,10.52-18.5,14.55-3.42,1.96-7.01,3.7-10.87,4.78-4.55,1.37-16.17,2.78-16.11-4.53.83-5.93,6.92-10.5,11.35-13.88,6.48-4.56,13.74-8.02,21.46-9.98l.72,2.06c-9.39,4.26-18.97,7.95-29.06,10.19-11.56,2.68-25.84,1.94-21.49-13.98,3.55-6.15,14.93-7.8,21.41-8.71,7.49-.88,15.01-.92,22.52-.75l.06,2.82c-13.4.81-26.8,2.01-40.24.8-5.11-.37-9.25-4.67-10.56-9.5-1.9-7.47,6.28-11.76,12.22-13.16,3.57-.52,7.05-.58,10.53-.67,10.24-.15,20.45.14,30.68.56l-.13,3.14c-12.16-.55-24.37-1.25-36.36-3.64-3.61-.83-8.02-1.71-10.57-4.86-5.57-6.09-4.84-14.46,4.07-16.37,14.94-2.72,36.35,6.08,49.32,13.42,0,0-1.44,2.53-1.44,2.53-4.04-2.17-8.37-3.97-12.7-5.79-9.2-4.18-26.23-9.66-28.9-20.51-2.2-10.15,10.88-10.59,17.56-8.63,2.38.65,4.74,1.46,6.91,3.09l5.54,4.38c7.46,5.88,14.28,12.73,19.66,20.6l-1.96,1.38c-7.62-10.49-22.66-24.67-18.87-38.91,1.41-4.55,5.39-9.33,10.62-7.39,2.38.87,4.19,2.47,5.79,4.14,3.15,3.41,5.55,7.31,7.67,11.32,4.45,7.96,5.94,17.08,7.84,25.88l-1.44.29c-1.52-7.84-4.27-15.45-5.96-23.39-.81-3.96-1.45-8.07-.76-12.18.56-3.61,2.91-6.97,6.31-8.45,5.8-2.6,12.17,8.06,13.36,12.71.6,1.97.66,4.03.8,6.03.45,8.05.59,16.11.71,24.16h0ZM184.85,386.77c-9.96-2.01-10.87,11.67-11.47,18.56-.61,8.73-.18,17.49-.45,26.29-1.15-4.31-1.94-8.69-2.4-13.11-.78-8.87-1.07-18.4,2.8-26.69,1.95-4.33,6.98-7.91,11.52-5.05h0ZM199.05,410.9c-7.58-7.87-11.69-20.34-8.66-31.02.53,2.77.86,5.4,1.49,8.01,1.6,7.58,4.58,15.68,7.17,23.02h0ZM196.63,372.01c2.92.66,4.72,3.59,6.16,6,3.97,7.64,5.29,16.42,4.63,24.94-1.77-4.61-3.3-11.3-4.6-16.08-.72-2.64-1.41-5.29-2.31-7.83-.96-2.5-1.73-5.24-3.88-7.03h0ZM216.22,401.1c.23-6.64,5.28-34.02-2.27-36.06-4.15-.07-7.36,3.69-10.36,6.26,2.47-4.16,7.03-10.54,12.68-8.2,9.25,5.79,3.45,29.61-.05,38h0ZM226.72,400.49c2.3-5.34,15.21-27.45,8.25-30.96-3.42-.95-7.58,1.16-10.91,2.47,3.62-3.26,10.82-7.97,14.8-2.6,4.71,8.95-5.95,24.77-12.14,31.09h0ZM234.56,406.07c4.7-5.01,9.96-9.66,13.91-15.15,1.64-2.4,3.6-5.69.84-7.85-2.58-1.83-5.78-2.38-8.8-3.2,4.72-.67,12.64-.31,13.11,5.96-.12,8.33-12.25,16.96-19.08,20.24h0ZM243.37,416c2.13-1.67,4.27-3.19,6.31-4.76,2.65-2.2,5.99-4.36,6.77-7.63.17-3.28-4.23-5.29-6.85-7.2,2.97.28,6.38,1.2,8.61,3.73,5.48,7.93-8.6,14.91-14.84,15.85h0ZM248.11,427.93c3.81-2.08,11.9-4.33,12.89-8.67.16-3.17-2.43-5.66-4.31-8.36,2.27.93,4.38,2.29,5.98,4.47,5.66,8.76-7.82,13.54-14.57,12.56h0ZM249.6,441.34c2.13-.89,4.22-1.62,6.23-2.41,2.71-1.15,5.72-2.1,7.34-4.42,1.33-2.65-.92-5.23-2.35-7.86,1.05.51,2.02,1.14,2.91,1.92,3.59,3.06,3.51,7.71-.55,10.33-4.16,2.59-8.89,3.15-13.57,2.44h0ZM543.34,202.11c-4.25,55.5-.94,111.04-3.27,166.63-2.37,47.07-9.92,107.35-64.77,119.28-6.79,1.6-13.75,2.38-20.69,2.59,6.92-.55,13.8-1.62,20.48-3.41,53.49-13.67,59.28-72.04,61.79-118.62,2.45-55.45-.24-111.25,6.45-166.47h0ZM538.62,201.39c-58.47,56.67,40.49,223.82-44.24,276.47-12.07,7.29-25.91,10.94-39.77,12.76,13.63-2.49,27.28-6.45,38.94-14.08,81-52.2-16.98-218.38,45.07-275.14h0ZM466.04,454.69c12.11-2.6,20.55-10.53,24.63-22.08,4.06-10.87,4.89-22.66,5.22-34.19.21-11.63-.21-23.29-.75-34.96-2.03-54.98-9.19-127.65,43.49-162.07-50.19,36.49-41.88,107.15-40.48,161.95.36,11.69.75,23.42.18,35.16-.63,11.72-1.75,23.68-6.21,34.68-4.79,11.73-13.4,19.47-26.07,21.51h0ZM446.45,264.44c7.24-18.15,20.21-34.2,37.1-44.27,16.81-10.12,35.91-15.53,55.08-18.78-11.6,3.58-23.05,7.2-34.21,11.81-26.74,11.17-43.65,25.95-57.97,51.24h0ZM439.91,402.43c46.1-64.94-25.2-125.8,9.61-214.51,6.06-15.93,14.83-30.7,24.99-44.33-6.17,9.47-12,19.18-16.66,29.44-46.73,96.87,34.23,162.92-17.94,229.39h0ZM538.62,201.39c-24.05-3.24-48.65-.29-71.5,7.61-7.61,2.67-15.01,5.93-22.17,9.85,25.13-19.12,63.33-26.29,93.67-17.46h0ZM424.13,393.18c24.93-69.08-27.03-167.72,24.05-228.91,7.41-8.51,16.46-15.44,26.33-20.67-4.76,2.93-9.31,6.17-13.55,9.76-67.25,58.01-6.03,167.47-36.83,239.82h0ZM366.25,380.48c7.74-33.9,3.18-68.9,8.08-103.18,6.1-49.02,32.03-85.97,71.24-114.81,9.24-6.93,19.03-13.05,28.94-18.89l-7.15,4.84c-6.87,4.54-14.44,10.09-20.84,15.29-37.6,29.38-62.9,66.03-69.21,114-5.3,34.01-1.48,69.38-11.06,102.75h0ZM449.32,499.87c45.34-2.47,74.36,21.79,90.76,62.56,0,0-3.03.56-3.03.56.11-8.09-.55-16.18-2.28-24.05-3.41-15.83-11.98-30.34-24.38-40.84-6.15-5.34-13.12-9.7-20.4-13.47,7.56,3.18,14.76,7.3,21.31,12.36,13.18,10.13,22.63,25.07,26.29,41.29,2.65,10.49,2.75,21.66,2.53,32.41-16.61-43.56-42.04-70.02-90.8-70.82h0ZM385.66,528.17c16.53,22.15,52.38,11.55,75.85,9.06,13.42-1.75,27.17-3.25,40.61-.33,14.07,2.82,25.33,12.35,31.02,25.46,0,0,2.7,5.89,2.7,5.89l-5.1-4.02c-6.07-4.82-13.05-8.5-20.62-10.19-42.37-8.7-81.9,39.25-137.66-2.19-6.42-4.78-12.28-10.26-17.74-16.06,5.72,5.53,11.75,10.77,18.27,15.33,65.06,46.17,109.12-29.01,159.71,10.66,0,0-2.4,1.88-2.4,1.88-5.24-12.23-15.74-21.16-28.81-23.92-12.96-2.93-26.53-1.64-39.69-.22-23.49,2.14-60.39,11.82-76.14-11.34h0ZM356.63,530.35c44.02,1.07,93.77-14.53,105.71-61.91,6.67-43.78-22.43-70.54-63.09-80.4-12.45-3.07-25.38-4.5-38.26-3.58,12.84-1.67,25.96-.63,38.63,1.98,42.14,8.95,73.08,36.97,65.77,82.78-12.38,48.57-63.57,64.6-108.76,61.11h0ZM387.66,33.91c-4.01,96.42-16.64,198.28-24.16,294.6-6.84,84.93-10.05,170.61-8.69,255.82.06,23.21,1.17,55.38,1.82,78.8-1.35-26.24-2.79-52.49-3.39-78.77-.75-25.46-1.01-53.42-.84-78.85-.26-157.86,24.22-314.42,35.26-471.6h0ZM474.51,143.6c-29.73,10.51-59.58,23.63-82.16,46.21-7.4,7.48-13.8,15.98-18.85,25.37,16.3-40.55,60.58-62.32,101.01-71.58h0ZM339.21,361.06c-.6-103.67,11.22-208.19,41.98-307.43,2.08-6.6,4.29-13.16,6.47-19.72l-5.66,19.96c-27.53,100-39.2,203.72-42.79,307.19h0ZM305.46,351.26c-.03-99.94,11.96-192.89,60.72-281.74,5.84-10.4,14.96-25.71,21.48-35.61-5.95,10.21-14.59,25.62-20.09,36.34-46.61,89.96-57.97,181.29-62.1,281.01h0ZM273.03,331.49c46.72-32.94-22.23-131.49,87.16-266.89,8.68-10.66,17.8-20.94,27.46-30.69-9.14,10.24-18,20.71-26.23,31.65-105.75,136.91-39.94,234.45-88.39,265.92h0ZM273.03,246.21c2.87-62.92,2.67-167.25,38.19-218.99,6-8.87,13.44-16.81,22-23.25-9.15,7.82-16.79,17.12-22.78,27.49-15.17,26.65-21.14,57.3-25.49,87.35-5.83,42.27-8,84.92-11.92,127.4h0ZM317.44,128.08c-.58-20.95.32-41.92,2.46-62.76,2.35-20.79,5.68-41.78,13.33-61.35-10.14,40.63-11.82,82.59-15.79,124.11h0ZM332.43,102.5c-2.45-18.41-4.17-36.93-4.3-55.51-.05-14.43.82-29.17,5.09-43.02-4.55,32.66-.13,65.72-.79,98.53h0ZM273.03,98.12c4.79-37.41,24.69-78,58.4-97.08-31.29,23.31-48.83,60.09-58.4,97.08h0ZM354.72,663.14c-14.98-17.28-20.96-44.32-23.25-66.61-.4-5.12-.87-11.36-.92-16.49-.23-7.09.09-14.68-.85-21.66-.63-5.22-2.38-10.13-7.79-11.16-8.84-1.44-18.03-1.49-27.02-2.1l-21.86-1.2c14.6-.38,29.18-.63,43.84.1,6.41.15,12.14,1.58,14.46,8.32,2.92,8.89,1.91,18.64,2.42,27.62.74,27.16,4.95,60.59,20.98,83.17h0ZM316.66,546.76c-7.73,6.6-9.86,16.71-10.95,26.34-.48,5.24-.45,5.25-1.57.04-.53-3.66-.49-7.5.25-11.14,1.45-6.47,5.55-13.36,12.26-15.23h0ZM303.81,576.39c1.44-10.9,2.18-31.08-13.81-29.08-14.13,1.44-15.43,20.09-15.68,31.31-2.56-12.61-.69-32.79,15.36-34.49,18.71-1.76,18.63,19.53,14.13,32.25h0ZM348.91,581.96c-.06-6.66.13-32.1-6.99-34.22l-.2-.03-.23-.16c-4.94-2.78-11.09-3.31-16.65-4.29-5.84-.82-11.73-1.45-17.63-1.94-29.43-2.09-59.27-3.28-88.61.39-5.53,1.02-12.05,1.67-16.41,5.4-1.29.08-2.29,1.11-3.07,2.46-2.12,4-2.75,8.69-3.34,13.18-.69,6.17-.88,12.4-.85,18.61-.55-8.7-1.77-28.19,4.14-34.78.64-.65,1.51-1.18,2.5-1.38l-.52.27c2.36-2.29,5.35-3.28,8.34-4.23,8.68-2.51,17.7-3.4,26.65-4.1,23.81-1.61,47.7-.96,71.45,1.31,8.91.92,17.84,2.01,26.57,4.14,3.03.84,5.97,1.49,8.65,3.41l-.43-.19c8.97,2.17,7.11,28.69,6.64,36.16h0ZM328.61,580.82c-8.9,1.13-18.2,1.23-27.17,1.17-9.07-.18-18.12-.61-27.12-2.02,9.04-1.13,18.09-1.27,27.17-1.17,8.97.22,18.25.61,27.12,2.02h0ZM298.38,583.38c4.14,21.64-2.7,46.49-24.34,55.78,4.3-3.29,8.2-6.91,11.42-11.03,10.1-12.61,12.11-29.07,12.93-44.75h0ZM309.88,584.09c-1.18,21.32-6.99,43.25-19.76,60.77-7.13,9.51-18.53,16.52-29.45,8.12-17.01-13.86-23.37-48.57-26.71-69.49,4.41,17.05,15.91,70.21,37.51,70.07,12.88-.83,21.98-18.09,26.93-28.63,5.76-12.95,9.62-26.75,11.48-40.83h0ZM334.15,623.26c-7.52,2.89-19.43,4.32-26.93.99,8.99-1.05,17.9-2.39,26.93-.99h0ZM333.39,600.41c1.42,7.01,1.6,15.12-3.06,21.09-1.73,2.09-4.28,3.52-6.93,4.02-2.68-.04-5.18-1.89-6.46-4.11-3.46-6.29-3.27-13.55-2.66-20.45,6.29-.43,12.85-.5,19.11-.55h0ZM333.39,600.41c-5.14.92-12.82,2.3-17.86,2.98l1.13-1.16c.06,5.8.16,12.36,2.97,17.51.92,1.57,2.19,2.57,3.77,2.7l-.4.02c9.46-1.85,10.17-14.18,10.38-22.06h0ZM305.34,623.98c1.78-.98,3.98-1.32,5.22-2.92,1.45-1.67,2.01-4.28,2.33-6.6.53-3.59.55-7.23.83-10.86l.55.87c-1.48-1.07-3.47-1.48-5.35-1.67,2-.85,4.25-1.01,6.36-.18l.44.17.11.69c1.42,8.03,1.06,22.22-10.48,20.51h0ZM350.97,427.68c-3.89-10.08-11.63-20.85-23.17-21.91-16.36-1.02-27.19,12.01-29.45,27.27-.31,1.19-.43,2.96-.53,4.2-.05,1.26-.35,3-.27,4.24-.05,5.6.35,11.52,1.3,17.06,1.92,10.68,5.5,23.01,15.79,28.26,7.75,3.74,16.83,1.54,24.05-2.71,3.95-2.42,10.92-7.62,10.39-12.78.66,2.95-1.38,5.76-3.14,7.94-5.87,6.67-14.26,11.31-23.37,11.54-18.55.19-25.7-20.74-27.46-36.1-.63-5.82-1.11-11.93-.42-17.76.13-1.31.26-3.17.59-4.44.32-1.28.5-3.16.95-4.39,3.88-14.84,15.93-26.06,31.79-24.39,12.1,1.58,19.79,13.09,22.94,23.96h0ZM359.69,408.31c15.5-1.22,31.72.36,45.72,7.74,18.71,9.44,29.12,30.46,21.01,50.62-10.88,26.69-42.17,36.78-68.86,37.02,3.72-.38,7.81-.93,11.51-1.58,25.08-4.19,54.46-19.31,56.85-47.42,1.29-15.32-8.57-29.28-21.71-36.47-13.39-7.58-29.27-9.85-44.52-9.91h0ZM354.72,378.71c-9.06-12.22-23.91-20.51-39.17-15.84-29.53,10.14-36.32,51.73-39.1,79.07-.3-26.28,5-60.68,27.93-76.99,18.27-12.35,39.76-4.41,50.34,13.76h0ZM293.91,457.27c-4.62-2.8-8.83-6.68-13.08-9.95-1.41-1.12-2.86-2.21-4.38-3.46,1.97,0,3.88.53,5.66,1.3,5.25,2.39,9.61,6.74,11.8,12.11h0ZM349.79,487.44c-1.38,15.45-7.75,44.92-29.05,38.55-5.66-1.78-10.02-5.63-14.68-8.88-1.47-1.1-4.02-2.46-5.62-3.41l-2.97-1.41c-1.62-.83-4.39-1.79-6.1-2.47-1.09-.32-3.7-1.08-4.74-1.39-1-.21-3.8-.8-4.83-1.01-1.11-.13-3.83-.5-4.9-.63-1.04-.07-3.86-.18-4.93-.24-1.08.04-3.88.09-4.93.12-1.06.09-3.82.41-4.91.51-1.03.2-3.84.72-4.85.91-1.05.28-3.69,1.01-4.76,1.3-1.73.68-4.48,1.54-6.13,2.38-2.41,1.02-5.03,2.51-7.27,3.83-1.06.67-3,2.11-4.04,2.81-9.68,8.03-22.11,12.48-31.01.6-6.65-9.32-8.93-21-10.04-32.17,1.44,8.8,3.69,17.65,7.86,25.54,8.18,15.33,19.29,14.16,31.45,3.84,1.05-.77,3.2-2.34,4.22-3.04,1.47-.86,3-1.82,4.46-2.65,1.84-.87,4.39-2.22,6.3-2.86l3.24-1.21c1.14-.33,3.9-1.1,5-1.4,1.05-.21,4-.78,5.1-.98,1.16-.13,4.04-.45,5.16-.57,1.09-.04,4.06-.12,5.19-.15,1.14.06,4.08.22,5.18.28,1.11.12,4,.55,5.14.69,1.08.24,4.01.86,5.07,1.09,1.1.32,3.85,1.16,4.97,1.49l3.22,1.26c1.85.65,4.48,2.08,6.25,2.93.88.54,3.57,2.13,4.44,2.68,4.94,3.38,9.62,7.92,15.25,9.87,19.1,6.41,25.95-22.51,28.27-36.2h0ZM319.78,514.01c-2.63-8.37-8.87-29.69-18.54-31.16-5.56.24-8.29,7.42-10.62,11.79.98-7.03,5.9-18.02,14.77-13.59,9.98,5.91,14.09,22.15,14.39,32.96h0ZM312.64,509.64c-1.19-2.69-2.14-5.39-3.17-8.01-1.03-2.6-2.07-5.23-3.5-7.3-.71-1.02-1.54-1.8-2.32-2-.75-.25-1.81.09-2.87.79-2.14,1.41-4.01,3.67-6.03,5.76.91-2.79,2.16-5.48,4.47-7.73,1.98-2.07,5.39-2.57,7.63-.55,4.86,4.59,5.81,12.76,5.78,19.03h0ZM347.91,508.66c-1.37,16.98-10.56,34.3-30.07,25.72-4.71-2-9.83-5.54-13.28-8.38-9.2-5.89-19.41-10.77-30.34-11.83-14.33-1.53-26.62,4.26-37.49,13.19-22.51,17.21-38.15,7.51-40.81-19.31,3.06,18.07,12.85,33.5,32.38,21.79,4.85-2.83,8.87-6.52,13.48-9.85,4.69-3.31,9.94-5.91,15.52-7.48,16.96-5.06,34.81,1.51,48.81,11.16,21.71,18.62,36.64,12.92,41.79-15.02h0ZM312.96,358.28c-6.13-3.46-12.24-6.56-18.92-8.56-6.66-2.08-13.46-2.95-20.46-3.68,13.96-3.58,30.01,1.21,39.39,12.24h0ZM300.72,365.41c-4.42-19.38-14.39-13.74-20.84.8-1.74,3.81-3.2,7.81-4.7,11.86.61-8.72,2.81-17.68,8.97-24.38,10.04-9.58,17.72,1.01,16.58,11.71h0ZM274,349.76c4.04-2.32,8.94,2.99,6.71,6.92-2.35-2.48-4.05-4.66-6.71-6.92h0ZM357.56,490.61c10.45-.39,21.32-1.81,30.88-6.16,9.09-4.11,17.78-11.82,18.03-22.35,0-4.97-2.01-9.79-5.39-13.46-7.83-8.81-20.2-12-31.57-13.53-1.32-.09-4.65-.44-5.96-.52-1.34-.05-4.64-.17-6-.24,15.68-1.49,34.14.12,45.77,12.28,3.94,4.12,6.3,9.78,6.33,15.52-.24,11.68-10.02,20.66-20.24,24.59-10.09,4.05-21.15,4.79-31.87,3.88h0ZM357.56,528.17c6.03-1.34,5.97-13.34,6.38-18.37.23-5.6.11-11.13.64-16.76,1.71,5.44,2.48,11.15,2.51,16.84-.13,4.12-.49,8.29-2.12,12.22-1.13,2.92-3.85,6.81-7.41,6.08h0ZM366.25,493.04c2.35,9.06,5.87,25.98,13.79,31.18,2.23,1.36,5.68,1.03,7.26-.99.79-.97,1.08-2.44,1.16-3.96.16-3.09-.69-6.39-1.58-9.59-1.96-6.42-4.71-12.68-7.59-18.91,5.34,7.15,20.27,32.2,6.62,37.01-15.07,3.97-19.35-24.45-19.65-34.75h0ZM370.94,431.94c.12-8.05.26-16.11.71-24.16.14-2,.2-4.06.8-6.03,1.2-4.71,7.59-15.29,13.36-12.71,3.4,1.49,5.74,4.83,6.31,8.45.69,4.11.05,8.23-.76,12.18-1.69,7.93-4.45,15.55-5.96,23.39l-1.44-.29c1.9-8.81,3.39-17.92,7.84-25.88,2.12-4.01,4.51-7.91,7.67-11.32,1.6-1.66,3.41-3.27,5.79-4.14,5.22-1.93,9.21,2.83,10.62,7.39,3.79,14.25-11.23,28.4-18.87,38.91,0,0-1.96-1.38-1.96-1.38,5.38-7.87,12.2-14.72,19.66-20.6l5.54-4.38c2.17-1.63,4.53-2.44,6.91-3.09,6.67-1.95,19.76-1.53,17.56,8.63-2.66,10.85-19.69,16.32-28.9,20.51-4.33,1.82-8.66,3.62-12.7,5.79l-1.44-2.53c12.95-7.33,34.4-16.14,49.32-13.42,8.88,1.91,9.67,10.25,4.07,16.37-2.56,3.14-6.96,4.02-10.57,4.86-12,2.39-24.2,3.09-36.37,3.64l-.13-3.14c10.23-.42,20.44-.72,30.68-.56,3.48.09,6.96.15,10.53.67,5.93,1.4,14.13,5.7,12.22,13.16-1.31,4.83-5.45,9.13-10.56,9.5-13.44,1.21-26.84,0-40.24-.8l.06-2.82c7.52-.17,15.03-.13,22.52.75,6.47.9,17.89,2.57,21.41,8.71,4.34,15.89-9.88,16.68-21.49,13.98-10.1-2.23-19.68-5.93-29.06-10.19,0,0,.72-2.06.72-2.06,7.73,1.96,14.98,5.41,21.46,9.97,3.21,2.32,6.29,4.89,8.78,8.12,1.24,1.71,2.41,3.53,2.57,5.76.3,2.48-1.84,4.47-4.06,5.04-8.1,1.99-16.04-1.44-22.91-5.3-6.8-4.03-12.93-8.99-18.51-14.55l.92-.88c4.57,4.97,9.09,9.99,13.12,15.41,1.31,1.86,2.81,3.77,3.15,6.1.39,2.3.21,4.65-.49,6.85-3.17,9.32-11.5,4.9-16.42-.29-4.19-5.67-7.45-11.96-10.15-18.46-.87-1.91-1.81-4.63-2.98-6.33,1.12,1.73,2.27,4.37,3.1,6.28,1.88,4.27,3.97,8.46,6.45,12.42,1.18,1.95,2.69,4.01,3.94,5.72,1.61,1.53,3.31,3,5.24,4.07,7.71,4.62,11.66-3.25,10.43-10.1-.36-2.18-1.8-3.92-3.06-5.68-4.07-5.32-8.64-10.26-13.25-15.13l.92-.88c9.38,8.76,21.34,18.32,34.5,19.54,6.69.32,11.14-1.86,5.99-8.46-7.35-8.71-18.34-14.27-29.24-17.11,0,0,.72-2.06.72-2.06,9.67,4.21,37.13,15.73,45.91,8.51,2.55-2.3,1.86-6.74,1.18-9.38-7.07-8.23-30.76-7.76-41.31-7.57l.06-2.82c5.88.42,11.79.75,17.69.97,5.89.2,11.81.36,17.64.09,2.64-.27,5.56-.04,7.85-1.48,2.12-1.47,3.94-3.77,4.51-6.15,1.28-5.67-5.48-8.32-10.09-9.55-12.46-1.16-27.14-.36-40.29.11,0,0-.13-3.14-.13-3.14,9.61-.42,19.27-1.09,28.77-2.36,4.53-.69,9.5-1.36,13.62-3.18,3.29-1.8,6.32-6.89,4.67-10.1-1.22-2.62-5.24-3.4-8.11-3.58-5.88-.22-11.69.91-17.42,2.47-9.18,2.56-18.16,6.22-26.39,10.96l-1.44-2.53c10.13-6.01,37.51-12.77,40.27-24.33,1.63-7.62-9.49-6.59-14.17-5.41-2.14.56-4.31,1.37-5.91,2.58l-5.57,4.33c-7.36,5.71-14,12.26-19.33,19.9l-1.96-1.38c7.25-9.9,22.19-23.69,18.88-36.91-5.51-15.32-16.55.37-20.6,8.28-4.44,7.8-5.92,16.72-7.95,25.36l-1.44-.29c1.66-7.97,4.53-15.54,6.3-23.35.85-3.88,1.52-7.9.92-11.78-.49-3.4-2.57-6.44-5.71-7.88-5.12-2.35-11.43,7.98-12.49,12.12-.6,1.89-.69,3.9-.88,5.91-.6,8.02-.89,16.08-1.16,24.13h0ZM358.98,387.37c4.55-2.85,9.57.71,11.52,5.05,3.87,8.29,3.58,17.81,2.8,26.69-.46,4.43-1.25,8.81-2.4,13.11-.3-9.89.25-19.71-.71-29.51-.73-6.35-2.48-17.25-11.21-15.34h0ZM344.79,411.5c3.66-10.05,7.16-20.41,8.66-31.02,3.03,10.68-1.08,23.15-8.66,31.02h0ZM347.2,372.61c-2.14,1.79-2.92,4.53-3.88,7.03-1.56,4.45-3.16,11.21-4.41,15.84-.76,2.68-1.45,5.39-2.5,8.07-.66-8.52.66-17.3,4.63-24.94,1.44-2.41,3.24-5.34,6.16-6h0ZM327.62,401.71c-3.49-8.38-9.32-32.17-.05-38,5.65-2.35,10.21,4.04,12.68,8.2-3-2.57-6.22-6.32-10.36-6.26-7.55,2.05-2.51,29.35-2.27,36.06h0ZM317.11,401.1c-6.19-6.33-16.84-22.09-12.14-31.09,3.99-5.38,11.17-.66,14.8,2.6-3.21-1.2-10.15-4.83-12.41-1.16-2.62,7.4,6.56,22.45,9.74,29.65h0ZM309.28,406.67c-6.8-3.25-18.97-11.91-19.08-20.24.2-5.19,6.4-6.39,10.46-6.2.89.06,1.78.13,2.66.24-.86.24-1.71.44-2.56.64-1.6.47-3.28.9-4.76,1.67-4.44,2-2.92,5.47-.63,8.74,3.95,5.49,9.22,10.13,13.91,15.15h0ZM300.46,416.61c-6.22-.94-20.32-7.92-14.84-15.85,2.23-2.53,5.64-3.46,8.61-3.73-2.62,1.9-7.03,3.92-6.85,7.2.78,3.27,4.12,5.42,6.77,7.63,2.04,1.58,4.18,3.09,6.31,4.76h0ZM295.72,428.53c-6.74.98-20.23-3.81-14.57-12.56,1.6-2.18,3.71-3.54,5.98-4.47-1.87,2.7-4.47,5.19-4.31,8.36,1,4.34,9.07,6.59,12.89,8.67h0ZM294.23,441.94c-4.68.71-9.41.15-13.57-2.44-4.07-2.62-4.14-7.27-.55-10.33.89-.78,1.86-1.41,2.91-1.92-1.44,2.63-3.68,5.21-2.35,7.86,1.61,2.32,4.62,3.27,7.34,4.42,2.01.79,4.1,1.51,6.23,2.41h0ZM346.84,443.86c0,15.11-7.53,27.36-16.82,27.36s-16.82-12.25-16.82-27.36,7.53-27.36,16.82-27.36,16.82,12.25,16.82,27.36ZM197.09,443.26c0,15.11,7.53,27.36,16.82,27.36s16.82-12.25,16.82-27.36-7.53-27.36-16.82-27.36-16.82,12.25-16.82,27.36Z"/>
  </g>
</svg>