<?xml version="1.0" encoding="UTF-8"?>
<svg id="Layer_2" data-name="Layer 2" xmlns="http://www.w3.org/2000/svg" viewBox="0 0 539.2 196.77">
  <defs>
    <style>
      .cls-1 {
        fill: #fff;
      }

      .cls-2 {
        fill: #f8931a;
      }
    </style>
  </defs>
  <g id="Layer_1-2" data-name="Layer 1">
    <g>
      <path class="cls-1" d="M43.39,45.81c3.98,0,7.42.71,10.32,2.11,2.9,1.41,5.3,3.32,7.21,5.72,1.91,2.4,3.31,5.22,4.23,8.45.91,3.23,1.37,6.71,1.37,10.44,0,5.72-1.06,11.13-3.17,16.22-2.11,5.1-4.99,9.53-8.64,13.3-3.65,3.77-7.96,6.76-12.93,8.95-4.97,2.19-10.36,3.29-16.16,3.29-.75,0-2.05-.02-3.92-.06-1.86-.04-4-.23-6.4-.56-2.4-.33-4.95-.83-7.65-1.49-2.69-.66-5.24-1.57-7.65-2.74L21.51,19.08l19.27-2.98-7.71,32.07c1.66-.75,3.31-1.32,4.97-1.74,1.66-.41,3.44-.62,5.35-.62ZM27.23,99.02c2.9,0,5.63-.7,8.2-2.11,2.57-1.41,4.79-3.29,6.65-5.66,1.86-2.36,3.34-5.03,4.41-8.02,1.08-2.98,1.62-6.09,1.62-9.32,0-3.98-.66-7.09-1.99-9.32-1.33-2.24-3.77-3.36-7.33-3.36-1.16,0-2.67.21-4.54.62-1.86.42-3.54,1.29-5.03,2.61l-8.2,34.06c.5.08.93.17,1.3.25.37.08.77.15,1.18.19.41.04.91.06,1.49.06h2.24Z"/>
      <path class="cls-1" d="M88.51,112.57h-18.4l15.54-65.39h18.52l-15.66,65.39ZM97.46,39.22c-2.57,0-4.89-.77-6.96-2.3-2.07-1.53-3.11-3.87-3.11-7.02,0-1.74.35-3.38,1.06-4.91.7-1.53,1.64-2.86,2.8-3.98,1.16-1.12,2.51-2.01,4.04-2.67,1.53-.66,3.17-.99,4.91-.99,2.57,0,4.89.77,6.96,2.3,2.07,1.53,3.11,3.87,3.11,7.02,0,1.74-.35,3.38-1.06,4.91-.71,1.53-1.64,2.86-2.8,3.98-1.16,1.12-2.51,2.01-4.04,2.67-1.53.66-3.17.99-4.91.99Z"/>
      <path class="cls-1" d="M121.7,30.89l19.27-2.98-4.72,19.27h20.64l-3.73,15.17h-20.51l-5.47,22.87c-.5,1.91-.81,3.69-.93,5.35-.12,1.66.08,3.09.62,4.29.54,1.2,1.47,2.13,2.8,2.8,1.32.66,3.15,1,5.47,1,1.99,0,3.92-.19,5.78-.56,1.86-.37,3.75-.89,5.66-1.55l1.37,14.17c-2.49.91-5.18,1.7-8.08,2.36-2.9.66-6.34.99-10.32.99-5.72,0-10.15-.85-13.3-2.55-3.15-1.7-5.39-4.02-6.71-6.96-1.33-2.94-1.91-6.32-1.74-10.13.16-3.81.75-7.83,1.74-12.06l12.18-51.47Z"/>
      <path class="cls-1" d="M156.14,86.46c0-5.63.91-10.94,2.73-15.91,1.82-4.97,4.43-9.32,7.83-13.05,3.4-3.73,7.52-6.67,12.37-8.83,4.85-2.15,10.26-3.23,16.22-3.23,3.73,0,7.06.35,10.01,1.06,2.94.71,5.61,1.64,8.02,2.8l-6.34,14.42c-1.66-.66-3.38-1.26-5.16-1.8-1.78-.54-3.96-.81-6.53-.81-6.22,0-11.11,2.09-14.67,6.28-3.56,4.19-5.35,9.88-5.35,17.09,0,4.23.91,7.65,2.74,10.26,1.82,2.61,5.18,3.92,10.07,3.92,2.4,0,4.72-.25,6.96-.75,2.24-.5,4.23-1.12,5.97-1.86l1.37,14.79c-2.32.91-4.87,1.72-7.65,2.42-2.78.7-6.15,1.06-10.13,1.06-5.14,0-9.49-.75-13.05-2.24-3.56-1.49-6.51-3.5-8.83-6.03-2.32-2.53-4-5.49-5.04-8.89-1.04-3.4-1.55-6.96-1.55-10.69Z"/>
      <path class="cls-1" d="M237.19,114.31c-4.39,0-8.2-.66-11.44-1.99-3.23-1.32-5.91-3.19-8.02-5.59-2.11-2.4-3.71-5.24-4.79-8.52-1.08-3.27-1.62-6.9-1.62-10.88,0-4.97.81-9.95,2.42-14.92,1.62-4.97,4-9.45,7.15-13.43,3.15-3.98,7-7.23,11.56-9.76,4.56-2.53,9.78-3.79,15.66-3.79,4.31,0,8.1.66,11.38,1.99,3.27,1.33,5.97,3.19,8.08,5.59,2.11,2.41,3.71,5.24,4.79,8.52,1.08,3.27,1.62,6.9,1.62,10.88,0,4.97-.79,9.95-2.36,14.92-1.58,4.97-3.9,9.45-6.96,13.43-3.07,3.98-6.9,7.23-11.5,9.76-4.6,2.53-9.93,3.79-15.97,3.79ZM246.39,61.1c-2.73,0-5.14.79-7.21,2.36-2.07,1.58-3.81,3.56-5.22,5.97-1.41,2.41-2.47,5.04-3.17,7.89-.71,2.86-1.06,5.57-1.06,8.14,0,4.23.66,7.48,1.99,9.76,1.33,2.28,3.73,3.42,7.21,3.42,2.73,0,5.14-.79,7.21-2.36,2.07-1.57,3.81-3.56,5.22-5.97,1.41-2.4,2.47-5.04,3.17-7.89.7-2.86,1.06-5.57,1.06-8.14,0-4.23-.66-7.48-1.99-9.76-1.33-2.28-3.73-3.42-7.21-3.42Z"/>
      <path class="cls-1" d="M295.99,112.57h-18.4l15.54-65.39h18.52l-15.66,65.39ZM304.94,39.22c-2.57,0-4.89-.77-6.96-2.3-2.07-1.53-3.11-3.87-3.11-7.02,0-1.74.35-3.38,1.06-4.91.7-1.53,1.64-2.86,2.8-3.98,1.16-1.12,2.51-2.01,4.04-2.67,1.53-.66,3.17-.99,4.91-.99,2.57,0,4.89.77,6.96,2.3,2.07,1.53,3.11,3.87,3.11,7.02,0,1.74-.35,3.38-1.06,4.91-.71,1.53-1.64,2.86-2.8,3.98-1.16,1.12-2.51,2.01-4.04,2.67-1.53.66-3.17.99-4.91.99Z"/>
      <path class="cls-1" d="M326.45,50.16c1.41-.41,2.96-.89,4.66-1.43,1.7-.54,3.61-1.04,5.72-1.49,2.11-.45,4.48-.83,7.09-1.12,2.61-.29,5.57-.44,8.89-.44,9.78,0,16.49,2.82,20.14,8.45,3.65,5.64,4.27,13.34,1.86,23.12l-8.45,35.31h-18.52l8.21-34.56c.5-2.15.89-4.25,1.18-6.28.29-2.03.27-3.81-.06-5.35-.33-1.53-1.1-2.78-2.3-3.73-1.2-.95-3.05-1.43-5.53-1.43s-4.85.25-7.33.75l-12.06,50.6h-18.52l15.04-62.41Z"/>
      <path class="cls-2" d="M455.71,11.56c3.01,2.63,4.76,5.17,5.24,5.82,3.12,4.21,5.01,9.17,5.01,14.44,0,8.66-4.55,14.72-13.64,18.18l-5.2.65-3.25-.32h-.33v.32c3.68,2.22,5.52,6.12,5.52,11.69,0,6.98-6.06,12.5-18.18,16.56-16.4,6.28-25.71,10.72-27.92,13.31l-.33,1.3v.33l22.41-.65,10.72.65,8.12-.97c6.49,0,9.74,2.92,9.74,8.77v1.62c0,3.57-2.81,7.04-8.44,10.39-10.39,12.93-15.59,23.97-15.59,33.12v.33c0,8.98,4.55,18.4,13.64,28.25,7.2,7.14,14.66,10.71,22.4,10.71h1.95c7.85,0,14.88-3.57,21.11-10.71,4-3.52,7.03-7.31,9.09-11.37,5.57-6.49,9.36-9.74,11.36-9.74,6.28.92,9.42,3.19,9.42,6.82v.65c-2,4.87-6.77,11.15-14.29,18.83-13.2,10.82-28.25,16.23-45.13,16.23-22.78,0-38.05-12.77-45.78-38.31-.87-3.68-1.3-7.79-1.3-12.34v-.33c0-12.66,4.55-24.89,13.64-36.69h-5.52c-3.68,0-11.91.97-24.68,2.92-2.81,0-6.06-2.06-9.74-6.17-1.95-3.19-2.92-5.57-2.92-7.14,0-4.44,2.81-8.98,8.44-13.64,5.52-4.22,15.69-9.42,30.52-15.59,4.11-1.68,6.17-3.95,6.17-6.82-.92-1.95-2.22-2.92-3.9-2.92h-2.27c-3.73,0-8.17,2.27-13.31,6.82-6.28,4.55-10.93,6.82-13.96,6.82h-2.6c-4.33-.59-6.49-2.33-6.49-5.2,0-4.55,5.41-10.28,16.23-17.21l1.95-.65v-.33c-12.61,0-20.94-4.98-25-14.94l-.97-6.49c0-12.39,7.36-20.94,22.08-25.65,6.22-1.95,12.61-2.92,19.16-2.92,5.43,0,10.83.79,16.09,2.08,2.31.56,4.98,1.2,8.4,2.53,3.62,1.4,7.96,3.13,12.34,6.96ZM391.6,22.4v2.27c0,4.98,4.22,8.88,12.66,11.69l2.92.33c4.22,0,8.55-1.62,12.99-4.87,4.76,0,7.14,1.84,7.14,5.52v1.95c-3.52,3.9-5.79,5.84-6.82,5.84v.33l2.27-.33h1.3c3.9,0,7.58.43,11.04,1.3-4.76-4.22-7.14-9.09-7.14-14.61,0-3.41,1.62-8.06,4.87-13.96h-.33c-5.57-2.92-12.07-4.55-19.48-4.87-14.29,1.03-21.43,4.17-21.43,9.42ZM442.91,25l-1.3,3.9c1.51,4.98,3.79,7.47,6.82,7.47h1.3l.33-1.3c-.6-2.81-2.98-6.17-7.14-10.07Z"/>
      <path class="cls-2" d="M485.3,43.97h.57c8.41,0,13.62,2.93,15.6,8.79l.57,3.4c0,8.51-5.39,16.26-16.17,23.26-4.87,3.16-10.58,8.6-5.05,14.32,2.33,2.41,5.88,3.07,9.21,3.48,3.33.41,6.68.69,10.04.83,3.24.14,6.41-.05,9.66-.02,3.08.02,5.52-1.04,7.8-3.09,2.03-1.83,3.34-4.34,3.5-7.09.24-4.07-2.1-6.87-4.53-9.79-1.24-1.49-2.68-2.79-4.14-4.06-1.28-1.11-3.11-2.26-4.07-3.66-2.65-3.83-3.97-7.52-3.97-11.06v-2.27c0-6.62,3.97-10.78,11.91-12.48l5.11-.28c8.46,0,14.23,3.59,17.3,10.78l.57,4.26v.28c0,4.35-1.8,6.52-5.39,6.52h-.28c-5.3,0-8.42-1.8-9.36-5.39,0-3.4-1.32-5.11-3.97-5.11-2.65.33-3.97,1.37-3.97,3.12,0,1.99,3.5,6.34,10.5,13.05,6.05,6.81,9.08,12.29,9.08,16.45,0,12.98-15.36,21.5-26.49,23.9-8.58,1.85-17.52,1.33-26.17-.14-6.46-1.1-13.08-2.84-18.07-7.08-4.54-3.86-6.96-9.74-5.97-15.65.69-4.15,3.31-5.68,6.47-8.26,5.26-4.3,10.52-8.61,15.78-12.91,3.4-3.45,5.11-5.91,5.11-7.38v-.57c0-1.89-1.32-2.84-3.97-2.84s-7.14,3.59-13.33,10.78c-3.45,3.78-6.1,5.67-7.94,5.67-3.78-.99-5.67-2.79-5.67-5.39v-1.7c0-2.32,3.69-6.76,11.06-13.33,6.43-6.24,12.67-9.36,18.72-9.36Z"/>
    </g>
  </g>
</svg>